# xmcd
#
# Track frame offsets:
#	150
#	31349
#	41676
#	55706
#	70814
#	84251
#	96594
#	105274
#	114887
#	122103
#	134093
#	147962
#	159111
#	168898
#	181207
#	191962
#	204052
#	213873
#	221862
#	234218
#	245658
#	253363
#	263432
#	275138
#	285567
#	296076
#	303628
#	312935
#	326681
#	334674
#
# Disc length: 4633 seconds
#
# Revision: 1
# Processed by: cddbd v1.5.2PL0 Copyright (c) Steve Scherf et al.
# Submitted via: EasyCDDAExtractor 16.0.8.1
#
DISCID=bf12171e
DTITLE=ROCKSTAR - 30 AÑOS DE HISTORIA MUSICAL
DYEAR=1900
DGENRE=
TTITLE0=TU RETRATO
TTITLE1=RECUERDOS DE UN QUERER
TTITLE2=ROCIO
TTITLE3=COLLAR DE LAGRIMAS
TTITLE4=CORAZON PERDIDO
TTITLE5=BODA Y LAGRIMAS
TTITLE6=SOLO BORRACHITO
TTITLE7=ROSA DE ESPINAS
TTITLE8=DOS MAS
TTITLE9=NEGRA INGRATA
TTITLE10=DESPEDIDA
TTITLE11=OLVIDATE DE MI
TTITLE12=AÑORANDO MI ECUADOR
TTITLE13=EN MI ESCRITORIO
TTITLE14=ANGUSTIA
TTITLE15=EL MOSQUITO
TTITLE16=ALAUSI
TTITLE17=YO QUISIERA QUITARME LA VIDA
TTITLE18=NEGRITA CONSENTIDA
TTITLE19=CASORIO
TTITLE20=LLEVAME CONTIGO
TTITLE21=QUE LASTIMA
TTITLE22=CHINCHINAL
TTITLE23=PASEN UNA PASEN DOS
TTITLE24=LA MAMA NEGRA
TTITLE25=SUSANA
TTITLE26=EL TRAVOLTOSO
TTITLE27=LA CLAUDIA
TTITLE28=EL CHOLERO
TTITLE29=BRINDEMOS POR ELLA
EXTD=
EXTT0=
EXTT1=
EXTT2=
EXTT3=
EXTT4=
EXTT5=
EXTT6=
EXTT7=
EXTT8=
EXTT9=
EXTT10=
EXTT11=
EXTT12=
EXTT13=
EXTT14=
EXTT15=
EXTT16=
EXTT17=
EXTT18=
EXTT19=
EXTT20=
EXTT21=
EXTT22=
EXTT23=
EXTT24=
EXTT25=
EXTT26=
EXTT27=
EXTT28=
EXTT29=
PLAYORDER=
